# Blender 4.1.1
# www.blender.org
mtllib cylinder1.mtl
o cylinder_mesh1
v 0.000000 0.738619 0.000000
v 0.000000 1.000000 2.000000
v 0.144097 0.724427 0.000000
v 0.195090 0.980785 2.000000
v 0.282657 0.682395 0.000000
v 0.382683 0.923880 2.000000
v 0.410355 0.614139 0.000000
v 0.555570 0.831470 2.000000
v 0.522283 0.522283 0.000000
v 0.707107 0.707107 2.000000
v 0.614139 0.410355 0.000000
v 0.831470 0.555570 2.000000
v 0.682395 0.282657 0.000000
v 0.923880 0.382683 2.000000
v 0.724427 0.144098 0.000000
v 0.980785 0.195090 2.000000
v 0.738619 0.000000 0.000000
v 1.000000 -0.000000 2.000000
v 0.724427 -0.144097 -0.000000
v 0.980785 -0.195090 2.000000
v 0.682395 -0.282657 -0.000000
v 0.923880 -0.382684 2.000000
v 0.614139 -0.410355 -0.000000
v 0.831470 -0.555570 2.000000
v 0.522283 -0.522283 -0.000000
v 0.707107 -0.707107 2.000000
v 0.410355 -0.614139 -0.000000
v 0.555570 -0.831470 2.000000
v 0.282657 -0.682395 -0.000000
v 0.382683 -0.923880 2.000000
v 0.144097 -0.724427 -0.000000
v 0.195090 -0.980785 2.000000
v 0.000000 -0.738619 -0.000000
v 0.000000 -1.000000 2.000000
v -0.144097 -0.724427 -0.000000
v -0.195090 -0.980785 2.000000
v -0.282657 -0.682395 -0.000000
v -0.382683 -0.923880 2.000000
v -0.410355 -0.614139 -0.000000
v -0.555570 -0.831470 2.000000
v -0.522283 -0.522283 -0.000000
v -0.707107 -0.707107 2.000000
v -0.614139 -0.410355 -0.000000
v -0.831470 -0.555570 2.000000
v -0.682395 -0.282657 -0.000000
v -0.923880 -0.382684 2.000000
v -0.724427 -0.144097 -0.000000
v -0.980785 -0.195090 2.000000
v -0.738619 0.000000 0.000000
v -1.000000 -0.000000 2.000000
v -0.724427 0.144098 0.000000
v -0.980785 0.195090 2.000000
v -0.682395 0.282657 0.000000
v -0.923880 0.382683 2.000000
v -0.614139 0.410355 0.000000
v -0.831470 0.555570 2.000000
v -0.522283 0.522283 0.000000
v -0.707107 0.707107 2.000000
v -0.410355 0.614139 0.000000
v -0.555570 0.831470 2.000000
v -0.282657 0.682395 0.000000
v -0.382683 0.923880 2.000000
v -0.144097 0.724427 0.000000
v -0.195090 0.980785 2.000000
v 0.000000 1.000000 0.500000
v 0.000000 1.000000 1.000000
v 0.000000 1.000000 1.500000
v 0.195090 0.980785 1.500000
v 0.195090 0.980785 1.000000
v 0.195090 0.980785 0.500000
v 0.382683 0.923880 1.500000
v 0.382683 0.923880 1.000000
v 0.382683 0.923880 0.500000
v 0.555570 0.831470 1.500000
v 0.555570 0.831470 1.000000
v 0.555570 0.831470 0.500000
v 0.707107 0.707107 1.500000
v 0.707107 0.707107 1.000000
v 0.707107 0.707107 0.500000
v 0.831470 0.555570 1.500000
v 0.831470 0.555570 1.000000
v 0.831470 0.555570 0.500000
v 0.923880 0.382683 1.500000
v 0.923880 0.382683 1.000000
v 0.923880 0.382683 0.500000
v 0.980785 0.195090 1.500000
v 0.980785 0.195090 1.000000
v 0.980785 0.195090 0.500000
v 1.000000 -0.000000 1.500000
v 1.000000 0.000000 1.000000
v 1.000000 0.000000 0.500000
v 0.980785 -0.195090 1.500000
v 0.980785 -0.195090 1.000000
v 0.980785 -0.195090 0.500000
v 0.923880 -0.382683 1.500000
v 0.923880 -0.382683 1.000000
v 0.923880 -0.382683 0.500000
v 0.831470 -0.555570 1.500000
v 0.831470 -0.555570 1.000000
v 0.831470 -0.555570 0.500000
v 0.707107 -0.707107 1.500000
v 0.707107 -0.707107 1.000000
v 0.707107 -0.707107 0.500000
v 0.555570 -0.831470 1.500000
v 0.555570 -0.831470 1.000000
v 0.555570 -0.831470 0.500000
v 0.382683 -0.923880 1.500000
v 0.382683 -0.923880 1.000000
v 0.382683 -0.923879 0.500000
v 0.195090 -0.980785 1.500000
v 0.195090 -0.980785 1.000000
v 0.195090 -0.980785 0.500000
v 0.000000 -1.000000 1.500000
v 0.000000 -1.000000 1.000000
v 0.000000 -1.000000 0.500000
v -0.195090 -0.980785 1.500000
v -0.195090 -0.980785 1.000000
v -0.195090 -0.980785 0.500000
v -0.382683 -0.923880 1.500000
v -0.382683 -0.923880 1.000000
v -0.382683 -0.923879 0.500000
v -0.555570 -0.831470 1.500000
v -0.555570 -0.831470 1.000000
v -0.555570 -0.831470 0.500000
v -0.707107 -0.707107 1.500000
v -0.707107 -0.707107 1.000000
v -0.707107 -0.707107 0.500000
v -0.831470 -0.555570 1.500000
v -0.831470 -0.555570 1.000000
v -0.831470 -0.555570 0.500000
v -0.923880 -0.382683 1.500000
v -0.923880 -0.382683 1.000000
v -0.923880 -0.382683 0.500000
v -0.980785 -0.195090 1.500000
v -0.980785 -0.195090 1.000000
v -0.980785 -0.195090 0.500000
v -1.000000 -0.000000 1.500000
v -1.000000 0.000000 1.000000
v -1.000000 0.000000 0.500000
v -0.980785 0.195090 1.500000
v -0.980785 0.195090 1.000000
v -0.980785 0.195090 0.500000
v -0.923880 0.382683 1.500000
v -0.923880 0.382683 1.000000
v -0.923880 0.382683 0.500000
v -0.831470 0.555570 1.500000
v -0.831470 0.555570 1.000000
v -0.831470 0.555570 0.500000
v -0.707107 0.707107 1.500000
v -0.707107 0.707107 1.000000
v -0.707107 0.707107 0.500000
v -0.555570 0.831470 1.500000
v -0.555570 0.831470 1.000000
v -0.555570 0.831470 0.500000
v -0.382683 0.923880 1.500000
v -0.382683 0.923880 1.000000
v -0.382683 0.923880 0.500000
v -0.195090 0.980785 1.500000
v -0.195090 0.980785 1.000000
v -0.195090 0.980785 0.500000
v 0.195090 0.980785 0.250000
v 0.382683 0.923880 0.250000
v 0.555570 0.831470 0.250000
v 0.707107 0.707107 0.250000
v 0.831470 0.555570 0.250000
v 0.923880 0.382683 0.250000
v 0.980785 0.195090 0.250000
v 1.000000 0.000000 0.250000
v 0.980785 -0.195090 0.250000
v 0.923880 -0.382683 0.250000
v 0.831470 -0.555570 0.250000
v 0.707107 -0.707107 0.250000
v 0.555570 -0.831470 0.250000
v 0.382683 -0.923879 0.250000
v 0.195090 -0.980785 0.250000
v 0.000000 -1.000000 0.250000
v -0.195090 -0.980785 0.250000
v -0.382683 -0.923879 0.250000
v -0.555570 -0.831470 0.250000
v -0.707107 -0.707107 0.250000
v -0.831470 -0.555570 0.250000
v -0.923880 -0.382683 0.250000
v -0.980785 -0.195090 0.250000
v -1.000000 0.000000 0.250000
v -0.980785 0.195090 0.250000
v -0.923880 0.382683 0.250000
v -0.831470 0.555570 0.250000
v -0.707107 0.707107 0.250000
v -0.555570 0.831470 0.250000
v -0.382683 0.923880 0.250000
v -0.195090 0.980785 0.250000
v 0.000000 1.000000 0.250000
vn -0.0000 0.6912 -0.7227
vn -0.0000 1.0000 -0.0000
vn 0.1348 0.6779 -0.7227
vn 0.1951 0.9808 -0.0000
vn 0.2645 0.6386 -0.7227
vn 0.3827 0.9239 -0.0000
vn 0.3840 0.5747 -0.7227
vn 0.5556 0.8315 -0.0000
vn 0.4888 0.4888 -0.7227
vn 0.7071 0.7071 -0.0000
vn 0.5747 0.3840 -0.7227
vn 0.8315 0.5556 -0.0000
vn 0.6386 0.2645 -0.7227
vn 0.9239 0.3827 -0.0000
vn 0.6779 0.1348 -0.7227
vn 0.9808 0.1951 -0.0000
vn 0.6912 -0.0000 -0.7227
vn 1.0000 -0.0000 -0.0000
vn 0.6779 -0.1348 -0.7227
vn 0.9808 -0.1951 -0.0000
vn 0.6386 -0.2645 -0.7227
vn 0.9239 -0.3827 -0.0000
vn 0.5747 -0.3840 -0.7227
vn 0.8315 -0.5556 -0.0000
vn 0.4888 -0.4888 -0.7227
vn 0.7071 -0.7071 -0.0000
vn 0.3840 -0.5747 -0.7227
vn 0.5556 -0.8315 -0.0000
vn 0.2645 -0.6386 -0.7227
vn 0.3827 -0.9239 -0.0000
vn 0.1348 -0.6779 -0.7227
vn 0.1951 -0.9808 -0.0000
vn -0.0000 -0.6912 -0.7227
vn -0.0000 -1.0000 -0.0000
vn -0.1348 -0.6779 -0.7227
vn -0.1951 -0.9808 -0.0000
vn -0.2645 -0.6386 -0.7227
vn -0.3827 -0.9239 -0.0000
vn -0.3840 -0.5747 -0.7227
vn -0.5556 -0.8315 -0.0000
vn -0.4888 -0.4888 -0.7227
vn -0.7071 -0.7071 -0.0000
vn -0.5747 -0.3840 -0.7227
vn -0.8315 -0.5556 -0.0000
vn -0.6386 -0.2645 -0.7227
vn -0.9239 -0.3827 -0.0000
vn -0.6779 -0.1348 -0.7227
vn -0.9808 -0.1951 -0.0000
vn -0.6912 -0.0000 -0.7227
vn -1.0000 -0.0000 -0.0000
vn -0.6779 0.1348 -0.7227
vn -0.9808 0.1951 -0.0000
vn -0.6386 0.2645 -0.7227
vn -0.9239 0.3827 -0.0000
vn -0.5747 0.3840 -0.7227
vn -0.8315 0.5556 -0.0000
vn -0.4888 0.4888 -0.7227
vn -0.7071 0.7071 -0.0000
vn -0.3840 0.5747 -0.7227
vn -0.5556 0.8315 -0.0000
vn -0.2645 0.6386 -0.7227
vn -0.3827 0.9239 -0.0000
vn -0.1348 0.6779 -0.7227
vn -0.1951 0.9808 -0.0000
vn 0.1801 0.9054 -0.3843
vn 0.3533 0.8529 -0.3843
vn 0.5129 0.7676 -0.3843
vn 0.6528 0.6528 -0.3843
vn 0.7676 0.5129 -0.3843
vn 0.8529 0.3533 -0.3843
vn 0.9054 0.1801 -0.3843
vn 0.9232 -0.0000 -0.3843
vn 0.9054 -0.1801 -0.3843
vn 0.8529 -0.3533 -0.3843
vn 0.7676 -0.5129 -0.3843
vn 0.6528 -0.6528 -0.3843
vn 0.5129 -0.7676 -0.3843
vn 0.3533 -0.8529 -0.3843
vn 0.1801 -0.9054 -0.3843
vn -0.0000 -0.9232 -0.3843
vn -0.1801 -0.9054 -0.3843
vn -0.3533 -0.8529 -0.3843
vn -0.5129 -0.7676 -0.3843
vn -0.6528 -0.6528 -0.3843
vn -0.7676 -0.5129 -0.3843
vn -0.8529 -0.3533 -0.3843
vn -0.9054 -0.1801 -0.3843
vn -0.9232 -0.0000 -0.3843
vn -0.9054 0.1801 -0.3843
vn -0.8529 0.3533 -0.3843
vn -0.7676 0.5129 -0.3843
vn -0.6528 0.6528 -0.3843
vn -0.5129 0.7676 -0.3843
vn -0.3533 0.8529 -0.3843
vn -0.1801 0.9054 -0.3843
vn -0.0000 0.9232 -0.3843
vt 1.000000 0.750000
vt 1.000000 1.000000
vt 0.968750 1.000000
vt 0.968750 0.750000
vt 0.937500 1.000000
vt 0.937500 0.750000
vt 0.906250 1.000000
vt 0.906250 0.750000
vt 0.875000 1.000000
vt 0.875000 0.750000
vt 0.843750 1.000000
vt 0.843750 0.750000
vt 0.812500 1.000000
vt 0.812500 0.750000
vt 0.781250 1.000000
vt 0.781250 0.750000
vt 0.750000 1.000000
vt 0.750000 0.750000
vt 0.718750 1.000000
vt 0.718750 0.750000
vt 0.687500 1.000000
vt 0.687500 0.750000
vt 0.656250 1.000000
vt 0.656250 0.750000
vt 0.625000 1.000000
vt 0.625000 0.750000
vt 0.593750 1.000000
vt 0.593750 0.750000
vt 0.562500 1.000000
vt 0.562500 0.750000
vt 0.531250 1.000000
vt 0.531250 0.750000
vt 0.500000 1.000000
vt 0.500000 0.750000
vt 0.468750 1.000000
vt 0.468750 0.750000
vt 0.437500 1.000000
vt 0.437500 0.750000
vt 0.406250 1.000000
vt 0.406250 0.750000
vt 0.375000 1.000000
vt 0.375000 0.750000
vt 0.343750 1.000000
vt 0.343750 0.750000
vt 0.312500 1.000000
vt 0.312500 0.750000
vt 0.281250 1.000000
vt 0.281250 0.750000
vt 0.250000 1.000000
vt 0.250000 0.750000
vt 0.218750 1.000000
vt 0.218750 0.750000
vt 0.187500 1.000000
vt 0.187500 0.750000
vt 0.156250 1.000000
vt 0.156250 0.750000
vt 0.125000 1.000000
vt 0.125000 0.750000
vt 0.093750 1.000000
vt 0.093750 0.750000
vt 0.062500 1.000000
vt 0.062500 0.750000
vt 0.031250 1.000000
vt 0.031250 0.750000
vt 0.000000 1.000000
vt 0.000000 0.750000
vt 0.031250 0.125000
vt 0.031250 0.250000
vt 0.000000 0.250000
vt 0.000000 0.125000
vt 0.031250 0.500000
vt 0.000000 0.500000
vt 0.062500 0.125000
vt 0.062500 0.250000
vt 0.062500 0.500000
vt 0.093750 0.125000
vt 0.093750 0.250000
vt 0.093750 0.500000
vt 0.125000 0.125000
vt 0.125000 0.250000
vt 0.125000 0.500000
vt 0.156250 0.125000
vt 0.156250 0.250000
vt 0.156250 0.500000
vt 0.187500 0.125000
vt 0.187500 0.250000
vt 0.187500 0.500000
vt 0.218750 0.125000
vt 0.218750 0.250000
vt 0.218750 0.500000
vt 0.250000 0.125000
vt 0.250000 0.250000
vt 0.250000 0.500000
vt 0.281250 0.125000
vt 0.281250 0.250000
vt 0.281250 0.500000
vt 0.312500 0.125000
vt 0.312500 0.250000
vt 0.312500 0.500000
vt 0.343750 0.125000
vt 0.343750 0.250000
vt 0.343750 0.500000
vt 0.375000 0.125000
vt 0.375000 0.250000
vt 0.375000 0.500000
vt 0.406250 0.125000
vt 0.406250 0.250000
vt 0.406250 0.500000
vt 0.437500 0.125000
vt 0.437500 0.250000
vt 0.437500 0.500000
vt 0.468750 0.125000
vt 0.468750 0.250000
vt 0.468750 0.500000
vt 0.500000 0.125000
vt 0.500000 0.250000
vt 0.500000 0.500000
vt 0.531250 0.125000
vt 0.531250 0.250000
vt 0.531250 0.500000
vt 0.562500 0.125000
vt 0.562500 0.250000
vt 0.562500 0.500000
vt 0.593750 0.125000
vt 0.593750 0.250000
vt 0.593750 0.500000
vt 0.625000 0.125000
vt 0.625000 0.250000
vt 0.625000 0.500000
vt 0.656250 0.125000
vt 0.656250 0.250000
vt 0.656250 0.500000
vt 0.687500 0.125000
vt 0.687500 0.250000
vt 0.687500 0.500000
vt 0.718750 0.125000
vt 0.718750 0.250000
vt 0.718750 0.500000
vt 0.750000 0.125000
vt 0.750000 0.250000
vt 0.750000 0.500000
vt 0.781250 0.125000
vt 0.781250 0.250000
vt 0.781250 0.500000
vt 0.812500 0.125000
vt 0.812500 0.250000
vt 0.812500 0.500000
vt 0.843750 0.125000
vt 0.843750 0.250000
vt 0.843750 0.500000
vt 0.875000 0.125000
vt 0.875000 0.250000
vt 0.875000 0.500000
vt 0.906250 0.125000
vt 0.906250 0.250000
vt 0.906250 0.500000
vt 0.937500 0.125000
vt 0.937500 0.250000
vt 0.937500 0.500000
vt 0.968750 0.125000
vt 0.968750 0.250000
vt 0.968750 0.500000
vt 1.000000 0.125000
vt 1.000000 0.250000
vt 1.000000 0.500000
vt 1.000000 0.000000
vt 0.968750 0.000000
vt 0.937500 0.000000
vt 0.906250 0.000000
vt 0.875000 0.000000
vt 0.843750 0.000000
vt 0.812500 0.000000
vt 0.781250 0.000000
vt 0.750000 0.000000
vt 0.718750 0.000000
vt 0.687500 0.000000
vt 0.656250 0.000000
vt 0.625000 0.000000
vt 0.593750 0.000000
vt 0.562500 0.000000
vt 0.531250 0.000000
vt 0.500000 0.000000
vt 0.468750 0.000000
vt 0.437500 0.000000
vt 0.406250 0.000000
vt 0.375000 0.000000
vt 0.343750 0.000000
vt 0.312500 0.000000
vt 0.281250 0.000000
vt 0.250000 0.000000
vt 0.218750 0.000000
vt 0.187500 0.000000
vt 0.156250 0.000000
vt 0.125000 0.000000
vt 0.093750 0.000000
vt 0.062500 0.000000
vt 0.031250 0.000000
vt 0.000000 0.000000
s 1
f 67/1/2 2/2/2 4/3/4 68/4/4
f 68/4/4 4/3/4 6/5/6 71/6/6
f 71/6/6 6/5/6 8/7/8 74/8/8
f 74/8/8 8/7/8 10/9/10 77/10/10
f 77/10/10 10/9/10 12/11/12 80/12/12
f 80/12/12 12/11/12 14/13/14 83/14/14
f 83/14/14 14/13/14 16/15/16 86/16/16
f 86/16/16 16/15/16 18/17/18 89/18/18
f 89/18/18 18/17/18 20/19/20 92/20/20
f 92/20/20 20/19/20 22/21/22 95/22/22
f 95/22/22 22/21/22 24/23/24 98/24/24
f 98/24/24 24/23/24 26/25/26 101/26/26
f 101/26/26 26/25/26 28/27/28 104/28/28
f 104/28/28 28/27/28 30/29/30 107/30/30
f 107/30/30 30/29/30 32/31/32 110/32/32
f 110/32/32 32/31/32 34/33/34 113/34/34
f 113/34/34 34/33/34 36/35/36 116/36/36
f 116/36/36 36/35/36 38/37/38 119/38/38
f 119/38/38 38/37/38 40/39/40 122/40/40
f 122/40/40 40/39/40 42/41/42 125/42/42
f 125/42/42 42/41/42 44/43/44 128/44/44
f 128/44/44 44/43/44 46/45/46 131/46/46
f 131/46/46 46/45/46 48/47/48 134/48/48
f 134/48/48 48/47/48 50/49/50 137/50/50
f 137/50/50 50/49/50 52/51/52 140/52/52
f 140/52/52 52/51/52 54/53/54 143/54/54
f 143/54/54 54/53/54 56/55/56 146/56/56
f 146/56/56 56/55/56 58/57/58 149/58/58
f 149/58/58 58/57/58 60/59/60 152/60/60
f 152/60/60 60/59/60 62/61/62 155/62/62
f 155/62/62 62/61/62 64/63/64 158/64/64
f 158/64/64 64/63/64 2/65/2 67/66/2
f 191/67/95 160/68/64 65/69/2 192/70/96
f 160/68/64 159/71/64 66/72/2 65/69/2
f 159/71/64 158/64/64 67/66/2 66/72/2
f 190/73/94 157/74/62 160/68/64 191/67/95
f 157/74/62 156/75/62 159/71/64 160/68/64
f 156/75/62 155/62/62 158/64/64 159/71/64
f 189/76/93 154/77/60 157/74/62 190/73/94
f 154/77/60 153/78/60 156/75/62 157/74/62
f 153/78/60 152/60/60 155/62/62 156/75/62
f 188/79/92 151/80/58 154/77/60 189/76/93
f 151/80/58 150/81/58 153/78/60 154/77/60
f 150/81/58 149/58/58 152/60/60 153/78/60
f 187/82/91 148/83/56 151/80/58 188/79/92
f 148/83/56 147/84/56 150/81/58 151/80/58
f 147/84/56 146/56/56 149/58/58 150/81/58
f 186/85/90 145/86/54 148/83/56 187/82/91
f 145/86/54 144/87/54 147/84/56 148/83/56
f 144/87/54 143/54/54 146/56/56 147/84/56
f 185/88/89 142/89/52 145/86/54 186/85/90
f 142/89/52 141/90/52 144/87/54 145/86/54
f 141/90/52 140/52/52 143/54/54 144/87/54
f 184/91/88 139/92/50 142/89/52 185/88/89
f 139/92/50 138/93/50 141/90/52 142/89/52
f 138/93/50 137/50/50 140/52/52 141/90/52
f 183/94/87 136/95/48 139/92/50 184/91/88
f 136/95/48 135/96/48 138/93/50 139/92/50
f 135/96/48 134/48/48 137/50/50 138/93/50
f 182/97/86 133/98/46 136/95/48 183/94/87
f 133/98/46 132/99/46 135/96/48 136/95/48
f 132/99/46 131/46/46 134/48/48 135/96/48
f 181/100/85 130/101/44 133/98/46 182/97/86
f 130/101/44 129/102/44 132/99/46 133/98/46
f 129/102/44 128/44/44 131/46/46 132/99/46
f 180/103/84 127/104/42 130/101/44 181/100/85
f 127/104/42 126/105/42 129/102/44 130/101/44
f 126/105/42 125/42/42 128/44/44 129/102/44
f 179/106/83 124/107/40 127/104/42 180/103/84
f 124/107/40 123/108/40 126/105/42 127/104/42
f 123/108/40 122/40/40 125/42/42 126/105/42
f 178/109/82 121/110/38 124/107/40 179/106/83
f 121/110/38 120/111/38 123/108/40 124/107/40
f 120/111/38 119/38/38 122/40/40 123/108/40
f 177/112/81 118/113/36 121/110/38 178/109/82
f 118/113/36 117/114/36 120/111/38 121/110/38
f 117/114/36 116/36/36 119/38/38 120/111/38
f 176/115/80 115/116/34 118/113/36 177/112/81
f 115/116/34 114/117/34 117/114/36 118/113/36
f 114/117/34 113/34/34 116/36/36 117/114/36
f 175/118/79 112/119/32 115/116/34 176/115/80
f 112/119/32 111/120/32 114/117/34 115/116/34
f 111/120/32 110/32/32 113/34/34 114/117/34
f 174/121/78 109/122/30 112/119/32 175/118/79
f 109/122/30 108/123/30 111/120/32 112/119/32
f 108/123/30 107/30/30 110/32/32 111/120/32
f 173/124/77 106/125/28 109/122/30 174/121/78
f 106/125/28 105/126/28 108/123/30 109/122/30
f 105/126/28 104/28/28 107/30/30 108/123/30
f 172/127/76 103/128/26 106/125/28 173/124/77
f 103/128/26 102/129/26 105/126/28 106/125/28
f 102/129/26 101/26/26 104/28/28 105/126/28
f 171/130/75 100/131/24 103/128/26 172/127/76
f 100/131/24 99/132/24 102/129/26 103/128/26
f 99/132/24 98/24/24 101/26/26 102/129/26
f 170/133/74 97/134/22 100/131/24 171/130/75
f 97/134/22 96/135/22 99/132/24 100/131/24
f 96/135/22 95/22/22 98/24/24 99/132/24
f 169/136/73 94/137/20 97/134/22 170/133/74
f 94/137/20 93/138/20 96/135/22 97/134/22
f 93/138/20 92/20/20 95/22/22 96/135/22
f 168/139/72 91/140/18 94/137/20 169/136/73
f 91/140/18 90/141/18 93/138/20 94/137/20
f 90/141/18 89/18/18 92/20/20 93/138/20
f 167/142/71 88/143/16 91/140/18 168/139/72
f 88/143/16 87/144/16 90/141/18 91/140/18
f 87/144/16 86/16/16 89/18/18 90/141/18
f 166/145/70 85/146/14 88/143/16 167/142/71
f 85/146/14 84/147/14 87/144/16 88/143/16
f 84/147/14 83/14/14 86/16/16 87/144/16
f 165/148/69 82/149/12 85/146/14 166/145/70
f 82/149/12 81/150/12 84/147/14 85/146/14
f 81/150/12 80/12/12 83/14/14 84/147/14
f 164/151/68 79/152/10 82/149/12 165/148/69
f 79/152/10 78/153/10 81/150/12 82/149/12
f 78/153/10 77/10/10 80/12/12 81/150/12
f 163/154/67 76/155/8 79/152/10 164/151/68
f 76/155/8 75/156/8 78/153/10 79/152/10
f 75/156/8 74/8/8 77/10/10 78/153/10
f 162/157/66 73/158/6 76/155/8 163/154/67
f 73/158/6 72/159/6 75/156/8 76/155/8
f 72/159/6 71/6/6 74/8/8 75/156/8
f 161/160/65 70/161/4 73/158/6 162/157/66
f 70/161/4 69/162/4 72/159/6 73/158/6
f 69/162/4 68/4/4 71/6/6 72/159/6
f 192/163/96 65/164/2 70/161/4 161/160/65
f 65/164/2 66/165/2 69/162/4 70/161/4
f 66/165/2 67/1/2 68/4/4 69/162/4
f 1/166/1 192/163/96 161/160/65 3/167/3
f 3/167/3 161/160/65 162/157/66 5/168/5
f 5/168/5 162/157/66 163/154/67 7/169/7
f 7/169/7 163/154/67 164/151/68 9/170/9
f 9/170/9 164/151/68 165/148/69 11/171/11
f 11/171/11 165/148/69 166/145/70 13/172/13
f 13/172/13 166/145/70 167/142/71 15/173/15
f 15/173/15 167/142/71 168/139/72 17/174/17
f 17/174/17 168/139/72 169/136/73 19/175/19
f 19/175/19 169/136/73 170/133/74 21/176/21
f 21/176/21 170/133/74 171/130/75 23/177/23
f 23/177/23 171/130/75 172/127/76 25/178/25
f 25/178/25 172/127/76 173/124/77 27/179/27
f 27/179/27 173/124/77 174/121/78 29/180/29
f 29/180/29 174/121/78 175/118/79 31/181/31
f 31/181/31 175/118/79 176/115/80 33/182/33
f 33/182/33 176/115/80 177/112/81 35/183/35
f 35/183/35 177/112/81 178/109/82 37/184/37
f 37/184/37 178/109/82 179/106/83 39/185/39
f 39/185/39 179/106/83 180/103/84 41/186/41
f 41/186/41 180/103/84 181/100/85 43/187/43
f 43/187/43 181/100/85 182/97/86 45/188/45
f 45/188/45 182/97/86 183/94/87 47/189/47
f 47/189/47 183/94/87 184/91/88 49/190/49
f 49/190/49 184/91/88 185/88/89 51/191/51
f 51/191/51 185/88/89 186/85/90 53/192/53
f 53/192/53 186/85/90 187/82/91 55/193/55
f 55/193/55 187/82/91 188/79/92 57/194/57
f 57/194/57 188/79/92 189/76/93 59/195/59
f 59/195/59 189/76/93 190/73/94 61/196/61
f 61/196/61 190/73/94 191/67/95 63/197/63
f 63/197/63 191/67/95 192/70/96 1/198/1
